<?xml version="1.0" encoding="utf-8"?>
<!-- Generator: Adobe Illustrator 16.0.0, SVG Export Plug-In . SVG Version: 6.00 Build 0)  -->
<!DOCTYPE svg PUBLIC "-//W3C//DTD SVG 1.1//EN" "http://www.w3.org/Graphics/SVG/1.1/DTD/svg11.dtd">
<svg version="1.1" xmlns="http://www.w3.org/2000/svg" xmlns:xlink="http://www.w3.org/1999/xlink" x="0px" y="0px" width="1000px"
	 height="575px" viewBox="0 0 1000 575" enable-background="new 0 0 1000 575" xml:space="preserve">
<g id="Layer_2">
	<path fill="#09A7FF" d="M83.826,356.37c-2.817,3.416-7.872,3.903-11.29,1.088L2.918,300.067c-3.417-2.817-3.904-7.872-1.087-11.288
		l57.389-69.619c2.816-3.417,7.871-3.904,11.289-1.087l69.617,57.389c3.417,2.817,3.905,7.871,1.088,11.289L83.826,356.37z"/>
	
		<rect x="90.333" y="296.919" transform="matrix(-0.7716 -0.6361 0.6361 -0.7716 1.4698 641.5951)" fill="#09A7FF" width="51.164" height="47.229"/>
	<path fill="#41B5FF" d="M84.05,345.27c-2.766,3.355-7.727,3.833-11.082,1.068L4.641,290.012c-3.354-2.767-3.832-7.727-1.066-11.081
		L59.9,210.603c2.765-3.354,7.725-3.832,11.08-1.067l68.329,56.326c3.354,2.766,3.832,7.727,1.067,11.08L84.05,345.27z"/>
	<path fill="#FFFFFF" d="M79.356,311.055c-2.074,2.516-5.794,2.874-8.31,0.8l-33.405-27.536c-2.516-2.075-2.874-5.795-0.8-8.312
		l27.537-33.404c2.074-2.516,5.795-2.874,8.311-0.801l33.405,27.538c2.515,2.074,2.873,5.794,0.799,8.311L79.356,311.055z"/>
	
		<rect x="94.09" y="292.365" transform="matrix(-0.7716 -0.6361 0.6361 -0.7716 11.0322 635.9188)" fill="#41B5FF" width="51.162" height="47.228"/>
</g>
<g id="Layer_4">
	<path fill="#09A7FF" d="M267.645,337.561c-4.057,4.921-11.336,5.622-16.258,1.564l-118.833-97.958
		c-4.921-4.057-5.622-11.337-1.565-16.258l97.958-118.834c4.057-4.921,11.336-5.622,16.258-1.565l118.834,97.958
		c4.921,4.058,5.622,11.336,1.565,16.258L267.645,337.561z"/>
	
		<rect x="295.849" y="257.98" transform="matrix(-0.7716 -0.6361 0.6361 -0.7716 390.3298 703.3348)" fill="#09A7FF" width="51.163" height="47.227"/>
	
		<rect x="184.117" y="283.698" transform="matrix(-0.6361 0.7716 -0.7716 -0.6361 580.2114 340.9812)" fill="#09A7FF" width="51.163" height="47.227"/>
	<path fill="#41B5FF" d="M269.511,326.015c-4.147,5.03-11.588,5.749-16.62,1.6L131.419,227.48
		c-5.032-4.148-5.748-11.59-1.601-16.622L229.952,89.386c4.148-5.031,11.589-5.747,16.621-1.599l121.473,100.134
		c5.031,4.147,5.748,11.589,1.601,16.62L269.511,326.015z"/>
	<path fill="#FFFFFF" d="M263.353,276.562c-4.148,5.032-11.589,5.749-16.621,1.604l-69.847-57.58
		c-5.032-4.147-5.749-11.588-1.601-16.62l57.578-69.847c4.148-5.031,11.589-5.748,16.621-1.6l69.846,57.578
		c5.032,4.147,5.749,11.588,1.601,16.619L263.353,276.562z"/>
	
		<rect x="299.603" y="253.426" transform="matrix(-0.7716 -0.6361 0.6361 -0.7716 399.896 697.6516)" fill="#41B5FF" width="51.163" height="47.228"/>
	
		<rect x="179.561" y="279.942" transform="matrix(-0.6361 0.7716 -0.7716 -0.6361 569.8619 338.3483)" fill="#41B5FF" width="51.164" height="47.228"/>
</g>
<g id="Layer_3">
	<path fill="#09A7FF" d="M181.611,436.977c-2.817,3.419-7.872,3.904-11.29,1.088l-69.617-57.388
		c-3.418-2.817-3.905-7.873-1.088-11.29l57.389-69.617c2.817-3.418,7.872-3.904,11.29-1.087l69.617,57.388
		c3.417,2.817,3.904,7.872,1.087,11.289L181.611,436.977z"/>
	<path fill="#41B5FF" d="M182.783,424.109c-2.766,3.354-7.727,3.832-11.081,1.066l-68.328-56.326
		c-3.354-2.764-3.832-7.725-1.066-11.079l56.326-68.328c2.765-3.354,7.726-3.833,11.08-1.068l68.329,56.325
		c3.354,2.768,3.832,7.729,1.067,11.082L182.783,424.109z"/>
	<path fill="#FFFFFF" d="M177.089,391.108c-2.074,2.516-5.794,2.874-8.31,0.802l-33.405-27.538c-2.516-2.074-2.874-5.795-0.8-8.311
		l27.537-33.405c2.074-2.517,5.794-2.874,8.311-0.8l33.405,27.537c2.516,2.073,2.874,5.794,0.8,8.31L177.089,391.108z"/>
</g>
<g id="Layer_5">
	<path fill="#09A7FF" d="M396.447,180.538c-2.817,3.417-7.872,3.904-11.29,1.087l-69.617-57.388
		c-3.418-2.818-3.906-7.872-1.088-11.29l57.388-69.618c2.818-3.418,7.873-3.905,11.29-1.087l69.618,57.389
		c3.417,2.817,3.905,7.871,1.087,11.288L396.447,180.538z"/>
	
		<rect x="406.372" y="123.905" transform="matrix(-0.7716 -0.6361 0.6361 -0.7716 671.429 536.1027)" fill="#09A7FF" width="51.162" height="47.228"/>
	<path fill="#41B5FF" d="M397.619,167.669c-2.766,3.355-7.727,3.832-11.081,1.067l-68.328-56.326
		c-3.354-2.765-3.833-7.726-1.067-11.081l56.326-68.328c2.766-3.354,7.725-3.832,11.08-1.067l68.329,56.326
		c3.354,2.765,3.833,7.727,1.067,11.082L397.619,167.669z"/>
	<path fill="#FFFFFF" d="M391.924,134.668c-2.074,2.516-5.794,2.875-8.31,0.801l-33.405-27.537c-2.516-2.074-2.874-5.793-0.8-8.31
		l27.537-33.405c2.074-2.517,5.794-2.874,8.31-0.801l33.405,27.537c2.516,2.074,2.874,5.794,0.8,8.311L391.924,134.668z"/>
	
		<rect x="410.127" y="119.35" transform="matrix(-0.7716 -0.6361 0.6361 -0.7716 680.979 530.4202)" fill="#41B5FF" width="51.163" height="47.227"/>
</g>
<g id="Layer_7">
	
		<rect x="647.553" y="276.816" transform="matrix(-0.7716 -0.6361 0.6361 -0.7716 1001.4319 960.4217)" fill="#09A7FF" width="51.164" height="47.228"/>
	
		<rect x="471.982" y="260.871" transform="matrix(-0.6361 0.7716 -0.7716 -0.6361 1033.5641 81.4987)" fill="#09A7FF" width="51.162" height="47.228"/>
	<path fill="#09A7FF" d="M625.929,349.962c-8.17,9.91-22.826,11.324-32.738,3.152L431.688,219.98
		c-9.911-8.169-11.322-22.828-3.152-32.738L561.669,25.739c8.169-9.91,22.827-11.321,32.737-3.152L755.91,155.721
		c9.911,8.17,11.32,22.827,3.151,32.737L625.929,349.962z"/>
	
		<rect x="651.309" y="272.26" transform="matrix(-0.7716 -0.6361 0.6361 -0.7716 1010.9926 954.7346)" fill="#41B5FF" width="51.163" height="47.228"/>
	
		<rect x="467.426" y="257.116" transform="matrix(-0.6361 0.7716 -0.7716 -0.6361 1023.2122 78.8667)" fill="#41B5FF" width="51.163" height="47.227"/>
	<path fill="#41B5FF" d="M626.607,339.857c-8.295,10.063-23.178,11.496-33.241,3.2L429.377,207.876
		c-10.063-8.295-11.496-23.178-3.201-33.241L561.358,10.646c8.296-10.064,23.179-11.496,33.242-3.201l163.987,135.182
		c10.063,8.295,11.496,23.179,3.201,33.241L626.607,339.857z"/>
	<path fill="#FFFFFF" d="M621.348,281.271c-8.483,10.29-23.703,11.758-33.998,3.271l-99.387-81.927
		c-10.291-8.484-11.756-23.704-3.273-33.996l81.929-99.388c8.482-10.292,23.704-11.757,33.996-3.274l99.386,81.928
		c10.295,8.486,11.759,23.706,3.274,33.997L621.348,281.271z"/>
</g>
<g id="Layer_6">
	
		<rect x="531.865" y="410.969" transform="matrix(-0.7716 -0.6361 0.6361 -0.7716 711.1631 1124.4969)" fill="#09A7FF" width="51.164" height="47.228"/>
	<path fill="#09A7FF" d="M441.89,565.483c-8.169,9.91-22.826,11.322-32.738,3.151L247.649,435.504
		c-9.91-8.17-11.321-22.828-3.152-32.739L377.63,241.261c8.169-9.91,22.827-11.322,32.738-3.152l161.503,133.133
		c9.912,8.171,11.322,22.828,3.152,32.738L441.89,565.483z"/>
	
		<rect x="535.621" y="406.414" transform="matrix(-0.7716 -0.6361 0.6361 -0.7716 720.7043 1118.8171)" fill="#41B5FF" width="51.163" height="47.228"/>
	<path fill="#41B5FF" d="M442.569,555.378c-8.295,10.063-23.178,11.497-33.241,3.202L245.34,423.398
		c-10.063-8.297-11.497-23.179-3.201-33.241L377.32,226.168c8.295-10.063,23.178-11.496,33.242-3.201L574.55,358.149
		c10.063,8.295,11.497,23.179,3.201,33.241L442.569,555.378z"/>
	<path fill="#FFFFFF" d="M437.309,496.793c-8.483,10.291-23.703,11.759-33.997,3.273l-99.386-81.929
		c-10.291-8.483-11.756-23.706-3.273-33.996l81.929-99.387c8.484-10.292,23.705-11.757,33.996-3.274l99.387,81.929
		c10.294,8.485,11.759,23.705,3.274,33.997L437.309,496.793z"/>
</g>
<g id="Layer_8">
	<path fill="#09A7FF" d="M626.99,540.172c-2.817,3.417-7.872,3.905-11.29,1.087l-69.617-57.388
		c-3.418-2.817-3.905-7.872-1.087-11.291l57.389-69.617c2.817-3.418,7.872-3.903,11.289-1.086l69.617,57.388
		c3.418,2.816,3.905,7.871,1.088,11.289L626.99,540.172z"/>
	<path fill="#41B5FF" d="M628.162,527.305c-2.766,3.353-7.726,3.832-11.081,1.066l-68.328-56.326
		c-3.354-2.766-3.832-7.726-1.066-11.08l56.325-68.329c2.765-3.354,7.726-3.831,11.08-1.066l68.329,56.326
		c3.354,2.765,3.832,7.726,1.066,11.08L628.162,527.305z"/>
	<path fill="#FFFFFF" d="M622.468,494.304c-2.074,2.515-5.794,2.874-8.311,0.799l-33.405-27.538c-2.516-2.072-2.873-5.792-0.8-8.309
		l27.537-33.405c2.074-2.516,5.794-2.874,8.311-0.801l33.405,27.536c2.516,2.077,2.874,5.796,0.8,8.312L622.468,494.304z"/>
</g>
<g id="Layer_9">
	
		<rect x="767.17" y="241.534" transform="matrix(-0.6361 0.7716 -0.7716 -0.6361 1501.6056 -177.892)" fill="#09A7FF" width="51.162" height="47.227"/>
	
		<rect x="847.369" y="232.413" transform="matrix(-0.7716 -0.6361 0.6361 -0.7716 1383.6979 1008.8425)" fill="#09A7FF" width="51.164" height="47.228"/>
	<path fill="#09A7FF" d="M838.383,287.907c-2.816,3.417-7.871,3.904-11.289,1.086l-69.616-57.387
		c-3.419-2.817-3.906-7.872-1.088-11.29l57.388-69.618c2.818-3.417,7.873-3.903,11.29-1.086L894.685,207
		c3.417,2.817,3.904,7.871,1.087,11.289L838.383,287.907z"/>
	
		<rect x="762.616" y="237.779" transform="matrix(-0.6361 0.7716 -0.7716 -0.6361 1491.2561 -180.5212)" fill="#41B5FF" width="51.162" height="47.227"/>
	
		<rect x="851.126" y="227.859" transform="matrix(-0.7716 -0.6361 0.6361 -0.7716 1393.2312 1003.1735)" fill="#41B5FF" width="51.162" height="47.227"/>
	<path fill="#41B5FF" d="M839.555,275.039c-2.765,3.354-7.725,3.833-11.08,1.067l-68.328-56.326
		c-3.354-2.766-3.832-7.726-1.067-11.081l56.326-68.329c2.765-3.354,7.726-3.833,11.08-1.067l68.329,56.326
		c3.354,2.766,3.831,7.726,1.066,11.08L839.555,275.039z"/>
	<path fill="#FFFFFF" d="M833.861,242.039c-2.074,2.516-5.795,2.874-8.311,0.8l-33.405-27.537c-2.516-2.074-2.874-5.794-0.8-8.31
		l27.537-33.405c2.074-2.517,5.794-2.875,8.311-0.801l33.404,27.537c2.517,2.074,2.874,5.793,0.801,8.31L833.861,242.039z"/>
</g>
<g id="Layer_11">
	<path fill="#09A7FF" d="M940.705,366.263c-2.817,3.417-7.872,3.902-11.29,1.086l-69.617-57.388
		c-3.418-2.817-3.905-7.872-1.087-11.289l57.388-69.619c2.818-3.417,7.873-3.904,11.29-1.086l69.618,57.388
		c3.416,2.817,3.904,7.873,1.087,11.289L940.705,366.263z"/>
	<path fill="#41B5FF" d="M941.877,353.394c-2.766,3.354-7.726,3.833-11.081,1.067l-68.328-56.326
		c-3.354-2.766-3.832-7.725-1.066-11.079l56.325-68.33c2.766-3.354,7.726-3.833,11.08-1.067l68.329,56.324
		c3.354,2.767,3.832,7.728,1.066,11.082L941.877,353.394z"/>
	<path fill="#FFFFFF" d="M936.183,320.393c-2.074,2.516-5.794,2.874-8.311,0.801l-33.404-27.537
		c-2.517-2.074-2.874-5.795-0.801-8.311l27.537-33.405c2.074-2.516,5.794-2.874,8.311-0.8l33.404,27.537
		c2.517,2.074,2.875,5.793,0.801,8.311L936.183,320.393z"/>
</g>
<g id="Layer_12">
	<path fill="#09A7FF" d="M769.047,490.507c-4.058,4.922-11.337,5.622-16.258,1.565l-118.834-97.959
		c-4.921-4.058-5.622-11.336-1.565-16.258l97.959-118.834c4.058-4.922,11.336-5.622,16.258-1.565l118.833,97.959
		c4.922,4.056,5.624,11.337,1.566,16.258L769.047,490.507z"/>
	<path fill="#41B5FF" d="M770.914,478.961c-4.147,5.031-11.59,5.748-16.621,1.6L632.82,380.428
		c-5.032-4.148-5.748-11.591-1.601-16.622l100.135-121.473c4.147-5.031,11.589-5.748,16.621-1.601l121.472,100.134
		c5.032,4.148,5.749,11.591,1.601,16.622L770.914,478.961z"/>
	<path fill="#FFFFFF" d="M764.754,429.51c-4.147,5.031-11.588,5.748-16.62,1.602l-69.847-57.579
		c-5.031-4.147-5.748-11.589-1.6-16.619l57.576-69.848c4.148-5.031,11.589-5.748,16.62-1.601l69.848,57.578
		c5.031,4.146,5.747,11.588,1.6,16.62L764.754,429.51z"/>
</g>
</svg>
